<svg width="29" height="25" viewBox="0 0 29 25" fill="none" xmlns="http://www.w3.org/2000/svg">
<path fill-rule="evenodd" clip-rule="evenodd" d="M0 23.6111C0 23.2428 0.13888 22.8895 0.386087 22.629C0.633294 22.3685 0.968578 22.2222 1.31818 22.2222H27.6818C28.0314 22.2222 28.3667 22.3685 28.6139 22.629C28.8611 22.8895 29 23.2428 29 23.6111C29 23.9795 28.8611 24.3327 28.6139 24.5932C28.3667 24.8537 28.0314 25 27.6818 25H1.31818C0.968578 25 0.633294 24.8537 0.386087 24.5932C0.13888 24.3327 0 23.9795 0 23.6111ZM0 12.5C0 12.1316 0.13888 11.7784 0.386087 11.5179C0.633294 11.2574 0.968578 11.1111 1.31818 11.1111H27.6818C28.0314 11.1111 28.3667 11.2574 28.6139 11.5179C28.8611 11.7784 29 12.1316 29 12.5C29 12.8684 28.8611 13.2216 28.6139 13.4821C28.3667 13.7426 28.0314 13.8889 27.6818 13.8889H1.31818C0.968578 13.8889 0.633294 13.7426 0.386087 13.4821C0.13888 13.2216 0 12.8684 0 12.5ZM0 1.38889C0 1.02053 0.13888 0.667264 0.386087 0.406796C0.633294 0.146329 0.968578 0 1.31818 0H27.6818C28.0314 0 28.3667 0.146329 28.6139 0.406796C28.8611 0.667264 29 1.02053 29 1.38889C29 1.75725 28.8611 2.11051 28.6139 2.37098C28.3667 2.63145 28.0314 2.77778 27.6818 2.77778H1.31818C0.968578 2.77778 0.633294 2.63145 0.386087 2.37098C0.13888 2.11051 0 1.75725 0 1.38889Z" fill="white"/>
</svg>
