<svg width="30" height="22" viewBox="0 0 30 22" fill="none" xmlns="http://www.w3.org/2000/svg">
<path d="M15.0966 0H15.2635C16.8048 0.00562535 24.6147 0.0618792 26.7204 0.628165C27.357 0.800991 27.9371 1.13786 28.4027 1.60512C28.8683 2.07237 29.2031 2.65364 29.3737 3.29083C29.5631 4.00338 29.6962 4.94656 29.7862 5.91975L29.805 6.11476L29.8462 6.60229L29.8612 6.7973C29.9831 8.51116 29.9981 10.1163 30 10.4669V10.6075C29.9981 10.9713 29.9812 12.6852 29.8462 14.4703L29.8312 14.6672L29.8144 14.8622C29.7206 15.9347 29.5818 16.9998 29.3737 17.7836C29.2031 18.4208 28.8683 19.0021 28.4027 19.4693C27.9371 19.9366 27.357 20.2735 26.7204 20.4463C24.5453 21.0313 16.2779 21.0726 15.1322 21.0744H14.8659C14.2865 21.0744 11.8901 21.0632 9.37746 20.9769L9.05869 20.9657L8.89556 20.9582L8.57491 20.9451L8.25427 20.9319C6.17289 20.8401 4.19089 20.6919 3.2777 20.4444C2.64134 20.2717 2.06141 19.9352 1.59582 19.4682C1.13023 19.0013 0.795281 18.4205 0.624414 17.7836C0.416276 17.0017 0.277517 15.9347 0.183761 14.8622L0.168761 14.6653L0.15376 14.4703C0.0606852 13.1997 0.00940431 11.9265 0 10.6525L0 10.4219C0.00375023 10.0188 0.0187512 8.62554 0.120008 7.08794L0.133133 6.89481L0.138759 6.7973L0.15376 6.60229L0.195012 6.11476L0.213763 5.91975C0.303769 4.94656 0.436902 4.0015 0.626289 3.29083C0.796869 2.65364 1.13169 2.07237 1.5973 1.60512C2.06291 1.13786 2.64299 0.800991 3.27958 0.628165C4.19276 0.384399 6.17476 0.23439 8.25614 0.140634L8.57491 0.127508L8.89743 0.116258L9.05869 0.110632L9.37934 0.0975064C11.1639 0.0401343 12.9492 0.00825381 14.7347 0.0018752L15.0966 0ZM12.0008 6.01913V15.0534L19.7956 10.5382L12.0008 6.01913Z" fill="#C08497"/>
</svg>
